<svg width="29" height="32" viewBox="0 0 29 32" fill="none" xmlns="http://www.w3.org/2000/svg">
<g id="Group 181">
<path id="Vector" d="M18.5497 19H14.4997M14.4997 19H10.4497M14.4997 19V14.5M14.4997 19V23.5" stroke="#1C274C" stroke-width="2" stroke-linecap="round"/>
<path id="Vector_2" d="M28 16.3059V18.5875C28 24.4387 28 27.3644 26.4183 29.1821C24.8368 31 22.2911 31 17.2 31H11.8C6.70883 31 4.16325 31 2.58162 29.1821C1 27.3644 1 24.4387 1 18.5875V16.3059C1 12.8732 1 11.1569 1.70092 9.73411C2.40184 8.31132 3.68238 7.42826 6.24344 5.66219L8.94344 3.8003C11.6507 1.93343 13.0043 1 14.5 1C15.9957 1 17.3493 1.93343 20.0566 3.8003L22.7566 5.66218C25.3177 7.42826 26.5982 8.31132 27.2991 9.73411" stroke="#1C274C" stroke-width="2" stroke-linecap="round"/>
</g>
</svg>
