<svg width="25" height="30" viewBox="0 0 25 30" fill="none" xmlns="http://www.w3.org/2000/svg">
<path id="Vector" d="M2.08333 2.08333V27.0833H22.9167V2.08333H2.08333ZM1.04167 0H23.9583C24.2346 0 24.4996 0.109747 24.6949 0.305097C24.8903 0.500447 25 0.765399 25 1.04167V28.125C25 28.4013 24.8903 28.6662 24.6949 28.8616C24.4996 29.0569 24.2346 29.1667 23.9583 29.1667H1.04167C0.765399 29.1667 0.500448 29.0569 0.305097 28.8616C0.109747 28.6662 0 28.4013 0 28.125V1.04167C0 0.765399 0.109747 0.500447 0.305097 0.305097C0.500448 0.109747 0.765399 0 1.04167 0ZM6.25 14.5833H18.75V16.6667H6.25V14.5833ZM6.25 8.33333H12.5V10.4167H6.25V8.33333ZM6.25 20.8333H18.75V22.9167H6.25V20.8333Z" fill="black"/>
</svg>
