<svg width="22" height="32" viewBox="0 0 22 32" fill="none" xmlns="http://www.w3.org/2000/svg">
<g id="Group 182">
<path id="Vector" d="M21.0003 27.246H15.0012" stroke="#292D32" stroke-width="2" stroke-linecap="round" stroke-linejoin="round"/>
<path id="Vector_2" d="M17.9995 30.2456V24.2465" stroke="#292D32" stroke-width="2" stroke-linecap="round" stroke-linejoin="round"/>
<path id="Vector_3" d="M11.4904 14.3031C11.3404 14.2881 11.1604 14.2881 10.9955 14.3031C7.42595 14.1831 4.59136 11.2585 4.59136 7.65903C4.57637 3.98456 7.56093 1 11.2354 1C14.9099 1 17.8945 3.98456 17.8945 7.65903C17.8945 11.2585 15.0449 14.1831 11.4904 14.3031Z" stroke="#292D32" stroke-width="2" stroke-linecap="round" stroke-linejoin="round"/>
<path id="Vector_4" d="M11.2359 30.7109C8.50634 30.7109 5.7918 30.021 3.7221 28.6412C0.0926324 26.2116 0.0926324 22.2522 3.7221 19.8375C7.8465 17.0779 14.6105 17.0779 18.7349 19.8375" stroke="#292D32" stroke-width="2" stroke-linecap="round" stroke-linejoin="round"/>
</g>
</svg>
